<svg width="746" height="68" viewBox="0 0 746 68" fill="none" xmlns="http://www.w3.org/2000/svg">
<path d="M89.4689 27.5C89.4315 24.4853 89.1982 21.7833 88.7689 19.394C88.4235 20.2527 88.1015 21.1253 87.8029 22.012C87.5135 22.8893 87.0749 24.3313 86.4869 26.338H85.4369C84.9329 24.574 84.5222 23.216 84.2049 22.264C83.8875 21.3027 83.5422 20.36 83.1689 19.436C82.7582 21.788 82.5202 24.476 82.4549 27.5H81.0689C81.1529 23.776 81.5355 20.5093 82.2169 17.7H83.7709C84.3122 18.96 84.7369 20.024 85.0449 20.892C85.3622 21.7507 85.6655 22.7167 85.9549 23.79C86.2722 22.698 86.5895 21.718 86.9069 20.85C87.2242 19.982 87.6489 18.932 88.1809 17.7H89.7349C90.4349 20.556 90.8129 23.8227 90.8689 27.5H89.4689ZM95.6983 27.64C94.597 27.64 93.7616 27.2993 93.1923 26.618C92.623 25.9367 92.3383 24.9427 92.3383 23.636C92.3383 22.3293 92.623 21.34 93.1923 20.668C93.7616 19.996 94.597 19.66 95.6983 19.66C96.7996 19.66 97.635 19.996 98.2043 20.668C98.783 21.34 99.0723 22.3293 99.0723 23.636C99.0723 24.9427 98.783 25.9367 98.2043 26.618C97.635 27.2993 96.7996 27.64 95.6983 27.64ZM95.6983 26.674C96.3983 26.674 96.907 26.4313 97.2243 25.946C97.551 25.4607 97.7143 24.6907 97.7143 23.636C97.7143 22.5907 97.551 21.83 97.2243 21.354C96.907 20.8687 96.3983 20.626 95.6983 20.626C94.9983 20.626 94.485 20.8687 94.1583 21.354C93.841 21.83 93.6823 22.5907 93.6823 23.636C93.6823 24.6907 93.8456 25.4607 94.1723 25.946C94.499 26.4313 95.0076 26.674 95.6983 26.674ZM106.964 25.666C106.964 26.1887 106.973 26.5573 106.992 26.772C107.02 26.9867 107.067 27.1827 107.132 27.36C106.796 27.5 106.446 27.57 106.082 27.57C105.905 27.57 105.783 27.4673 105.718 27.262C105.662 27.0473 105.634 26.6507 105.634 26.072V22.32C105.634 21.7227 105.527 21.298 105.312 21.046C105.107 20.7847 104.761 20.654 104.276 20.654C103.557 20.654 102.811 21.004 102.036 21.704V27.5H100.706V22.39C100.706 21.102 100.65 20.304 100.538 19.996C100.977 19.828 101.322 19.744 101.574 19.744C101.882 19.744 102.036 20.0147 102.036 20.556V20.696C102.484 20.332 102.904 20.0707 103.296 19.912C103.697 19.744 104.122 19.66 104.57 19.66C105.373 19.66 105.97 19.8793 106.362 20.318C106.763 20.7473 106.964 21.4053 106.964 22.292V25.666ZM112.58 22.74H117.62V23.664H112.58V22.74ZM126.626 27.64C125.945 27.64 125.329 27.5467 124.778 27.36C124.237 27.164 123.812 26.898 123.504 26.562C123.196 26.2167 123.042 25.8293 123.042 25.4C123.042 25.1667 123.131 24.98 123.308 24.84C123.495 24.7 123.747 24.6253 124.064 24.616C124.186 25.2413 124.466 25.722 124.904 26.058C125.352 26.3847 125.936 26.548 126.654 26.548C127.373 26.548 127.938 26.394 128.348 26.086C128.768 25.7687 128.978 25.344 128.978 24.812C128.978 24.3547 128.792 23.9907 128.418 23.72C128.045 23.44 127.392 23.174 126.458 22.922C125.674 22.7073 125.054 22.4787 124.596 22.236C124.139 21.984 123.803 21.6947 123.588 21.368C123.383 21.032 123.28 20.6307 123.28 20.164C123.28 19.3613 123.584 18.7267 124.19 18.26C124.797 17.7933 125.628 17.56 126.682 17.56C127.578 17.56 128.33 17.77 128.936 18.19C129.552 18.61 129.968 19.2027 130.182 19.968C130.089 20.0613 129.963 20.1407 129.804 20.206C129.646 20.262 129.492 20.29 129.342 20.29C129.202 20.29 129.081 20.2573 128.978 20.192C128.885 20.1267 128.806 20.0193 128.74 19.87C128.544 19.478 128.264 19.1747 127.9 18.96C127.546 18.7453 127.14 18.638 126.682 18.638C126.02 18.638 125.52 18.7593 125.184 19.002C124.848 19.2447 124.68 19.6087 124.68 20.094C124.68 20.3647 124.741 20.5933 124.862 20.78C124.993 20.9573 125.208 21.1253 125.506 21.284C125.814 21.4333 126.253 21.592 126.822 21.76C127.802 22.0493 128.544 22.32 129.048 22.572C129.552 22.824 129.902 23.1087 130.098 23.426C130.304 23.734 130.406 24.1307 130.406 24.616C130.406 25.2227 130.248 25.7547 129.93 26.212C129.622 26.6693 129.184 27.024 128.614 27.276C128.045 27.5187 127.382 27.64 126.626 27.64ZM137.863 25.26C137.863 25.8013 137.895 26.212 137.961 26.492C138.035 26.772 138.161 27.0147 138.339 27.22C138.208 27.3227 138.049 27.4113 137.863 27.486C137.676 27.5513 137.503 27.584 137.345 27.584C136.915 27.584 136.659 27.2013 136.575 26.436C136.295 26.8187 135.935 27.1173 135.497 27.332C135.067 27.5373 134.582 27.64 134.041 27.64C133.341 27.64 132.776 27.458 132.347 27.094C131.927 26.73 131.717 26.2447 131.717 25.638C131.717 23.9207 133.322 22.9827 136.533 22.824V22.278C136.533 21.7367 136.397 21.3353 136.127 21.074C135.856 20.8127 135.436 20.682 134.867 20.682C134.493 20.682 134.143 20.7567 133.817 20.906C133.49 21.0553 133.117 21.3167 132.697 21.69C132.631 21.7367 132.571 21.76 132.515 21.76C132.393 21.76 132.263 21.6993 132.123 21.578C131.983 21.4473 131.852 21.27 131.731 21.046C132.123 20.6073 132.608 20.2667 133.187 20.024C133.765 19.7813 134.367 19.66 134.993 19.66C135.889 19.66 136.589 19.8933 137.093 20.36C137.606 20.8173 137.863 21.4567 137.863 22.278V25.26ZM134.335 26.674C134.764 26.674 135.165 26.548 135.539 26.296C135.912 26.0347 136.243 25.666 136.533 25.19V23.692C134.218 23.7947 133.061 24.4153 133.061 25.554C133.061 25.918 133.168 26.198 133.383 26.394C133.607 26.5807 133.924 26.674 134.335 26.674ZM143.834 26.422C143.909 26.4593 143.97 26.5247 144.016 26.618C144.063 26.702 144.086 26.8 144.086 26.912C144.086 27.0987 144.016 27.234 143.876 27.318C143.736 27.4207 143.54 27.5 143.288 27.556C143.046 27.612 142.78 27.64 142.49 27.64C141.865 27.64 141.366 27.472 140.992 27.136C140.619 26.7907 140.432 26.3333 140.432 25.764V20.738H139.074V19.8H140.432V17.7H141.762V19.8H143.596V20.738H141.762V25.582C141.762 25.9553 141.837 26.2307 141.986 26.408C142.136 26.576 142.364 26.66 142.672 26.66C143.046 26.66 143.433 26.5807 143.834 26.422ZM151.767 17.672C152.933 17.672 153.792 18.0313 154.343 18.75C154.893 19.4687 155.169 20.4253 155.169 21.62C155.169 22.712 154.959 23.7153 154.539 24.63C154.128 25.5353 153.563 26.2587 152.845 26.8C152.126 27.332 151.333 27.598 150.465 27.598C150.147 27.598 149.919 27.5187 149.779 27.36C149.639 27.192 149.569 26.9493 149.569 26.632C150.633 26.632 151.515 26.3427 152.215 25.764C152.915 25.1853 153.4 24.3967 153.671 23.398C153.4 23.5847 153.087 23.7387 152.733 23.86C152.387 23.9813 152.028 24.042 151.655 24.042C150.712 24.042 149.947 23.7667 149.359 23.216C148.78 22.6653 148.491 21.8907 148.491 20.892C148.491 20.2667 148.635 19.7113 148.925 19.226C149.214 18.7313 149.606 18.3487 150.101 18.078C150.595 17.8073 151.151 17.672 151.767 17.672ZM151.795 23.034C152.597 23.034 153.288 22.7447 153.867 22.166C153.876 22.0447 153.881 21.8627 153.881 21.62C153.881 20.696 153.722 19.9773 153.405 19.464C153.087 18.9507 152.532 18.694 151.739 18.694C151.113 18.694 150.628 18.904 150.283 19.324C149.947 19.7347 149.779 20.276 149.779 20.948C149.779 21.648 149.951 22.1707 150.297 22.516C150.651 22.8613 151.151 23.034 151.795 23.034ZM158.055 27.528C157.532 27.528 157.271 27.2667 157.271 26.744V26.59C157.271 26.0673 157.532 25.806 158.055 25.806H158.195C158.717 25.806 158.979 26.0673 158.979 26.59V26.744C158.979 27.2667 158.717 27.528 158.195 27.528H158.055ZM164.629 27.668C163.397 27.668 162.464 27.2433 161.829 26.394C161.204 25.5353 160.891 24.3267 160.891 22.768C160.891 21.1067 161.204 19.8233 161.829 18.918C162.464 18.0127 163.397 17.56 164.629 17.56C165.861 17.56 166.79 18.0127 167.415 18.918C168.05 19.8233 168.367 21.1067 168.367 22.768C168.367 24.3267 168.05 25.5353 167.415 26.394C166.79 27.2433 165.861 27.668 164.629 27.668ZM164.629 26.618C165.45 26.618 166.057 26.282 166.449 25.61C166.841 24.938 167.037 23.9907 167.037 22.768C167.037 21.4333 166.841 20.4067 166.449 19.688C166.057 18.9693 165.45 18.61 164.629 18.61C163.024 18.61 162.221 19.996 162.221 22.768C162.221 25.3347 163.024 26.618 164.629 26.618ZM173.311 27.668C172.079 27.668 171.145 27.2433 170.511 26.394C169.885 25.5353 169.573 24.3267 169.573 22.768C169.573 21.1067 169.885 19.8233 170.511 18.918C171.145 18.0127 172.079 17.56 173.311 17.56C174.543 17.56 175.471 18.0127 176.097 18.918C176.731 19.8233 177.049 21.1067 177.049 22.768C177.049 24.3267 176.731 25.5353 176.097 26.394C175.471 27.2433 174.543 27.668 173.311 27.668ZM173.311 26.618C174.132 26.618 174.739 26.282 175.131 25.61C175.523 24.938 175.719 23.9907 175.719 22.768C175.719 21.4333 175.523 20.4067 175.131 19.688C174.739 18.9693 174.132 18.61 173.311 18.61C171.705 18.61 170.903 19.996 170.903 22.768C170.903 25.3347 171.705 26.618 173.311 26.618ZM182.102 22.74H187.142V23.664H182.102V22.74ZM197.128 26.548V27.5H192.508V26.548H194.216V19.268C193.982 19.4453 193.73 19.5993 193.46 19.73C193.189 19.8513 192.942 19.912 192.718 19.912C192.512 19.912 192.349 19.856 192.228 19.744C192.106 19.632 192.046 19.478 192.046 19.282C192.046 19.142 192.069 19.0253 192.116 18.932C192.508 18.8947 192.942 18.7687 193.418 18.554C193.894 18.3393 194.314 18.0547 194.678 17.7H195.49V26.548H197.128ZM203.455 22.46C204.146 22.7493 204.627 23.104 204.897 23.524C205.168 23.944 205.303 24.448 205.303 25.036C205.303 25.876 205.005 26.52 204.407 26.968C203.819 27.4067 203.007 27.626 201.971 27.626C200.945 27.626 200.133 27.4067 199.535 26.968C198.947 26.52 198.653 25.876 198.653 25.036C198.653 24.448 198.793 23.944 199.073 23.524C199.353 23.0947 199.834 22.74 200.515 22.46C199.974 22.18 199.568 21.8627 199.297 21.508C199.036 21.144 198.905 20.7007 198.905 20.178C198.905 19.4033 199.185 18.7873 199.745 18.33C200.305 17.8633 201.047 17.63 201.971 17.63C202.905 17.63 203.647 17.8633 204.197 18.33C204.748 18.7873 205.023 19.4033 205.023 20.178C205.023 20.71 204.893 21.158 204.631 21.522C204.379 21.886 203.987 22.1987 203.455 22.46ZM201.971 18.61C201.43 18.61 200.996 18.75 200.669 19.03C200.343 19.3007 200.179 19.6693 200.179 20.136C200.179 20.556 200.333 20.9247 200.641 21.242C200.959 21.55 201.402 21.802 201.971 21.998C202.643 21.7833 203.105 21.5313 203.357 21.242C203.619 20.9527 203.749 20.584 203.749 20.136C203.749 19.6693 203.586 19.3007 203.259 19.03C202.942 18.75 202.513 18.61 201.971 18.61ZM201.971 26.632C202.597 26.632 203.091 26.492 203.455 26.212C203.829 25.9227 204.015 25.5307 204.015 25.036C204.015 24.7187 203.955 24.4527 203.833 24.238C203.721 24.014 203.521 23.8087 203.231 23.622C202.942 23.4353 202.522 23.2393 201.971 23.034C201.253 23.3047 200.735 23.5893 200.417 23.888C200.1 24.1867 199.941 24.5693 199.941 25.036C199.941 25.5307 200.123 25.9227 200.487 26.212C200.851 26.492 201.346 26.632 201.971 26.632ZM208.012 27.528C207.489 27.528 207.228 27.2667 207.228 26.744V26.59C207.228 26.0673 207.489 25.806 208.012 25.806H208.152C208.674 25.806 208.936 26.0673 208.936 26.59V26.744C208.936 27.2667 208.674 27.528 208.152 27.528H208.012ZM214.586 27.668C213.354 27.668 212.421 27.2433 211.786 26.394C211.161 25.5353 210.848 24.3267 210.848 22.768C210.848 21.1067 211.161 19.8233 211.786 18.918C212.421 18.0127 213.354 17.56 214.586 17.56C215.818 17.56 216.747 18.0127 217.372 18.918C218.007 19.8233 218.324 21.1067 218.324 22.768C218.324 24.3267 218.007 25.5353 217.372 26.394C216.747 27.2433 215.818 27.668 214.586 27.668ZM214.586 26.618C215.407 26.618 216.014 26.282 216.406 25.61C216.798 24.938 216.994 23.9907 216.994 22.768C216.994 21.4333 216.798 20.4067 216.406 19.688C216.014 18.9693 215.407 18.61 214.586 18.61C212.981 18.61 212.178 19.996 212.178 22.768C212.178 25.3347 212.981 26.618 214.586 26.618ZM223.268 27.668C222.036 27.668 221.102 27.2433 220.468 26.394C219.842 25.5353 219.53 24.3267 219.53 22.768C219.53 21.1067 219.842 19.8233 220.468 18.918C221.102 18.0127 222.036 17.56 223.268 17.56C224.5 17.56 225.428 18.0127 226.054 18.918C226.688 19.8233 227.006 21.1067 227.006 22.768C227.006 24.3267 226.688 25.5353 226.054 26.394C225.428 27.2433 224.5 27.668 223.268 27.668ZM223.268 26.618C224.089 26.618 224.696 26.282 225.088 25.61C225.48 24.938 225.676 23.9907 225.676 22.768C225.676 21.4333 225.48 20.4067 225.088 19.688C224.696 18.9693 224.089 18.61 223.268 18.61C221.662 18.61 220.86 19.996 220.86 22.768C220.86 25.3347 221.662 26.618 223.268 26.618ZM84.6809 46.64C83.9995 46.64 83.3835 46.5467 82.8329 46.36C82.2915 46.164 81.8669 45.898 81.5589 45.562C81.2509 45.2167 81.0969 44.8293 81.0969 44.4C81.0969 44.1667 81.1855 43.98 81.3629 43.84C81.5495 43.7 81.8015 43.6253 82.1189 43.616C82.2402 44.2413 82.5202 44.722 82.9589 45.058C83.4069 45.3847 83.9902 45.548 84.7089 45.548C85.4275 45.548 85.9922 45.394 86.4029 45.086C86.8229 44.7687 87.0329 44.344 87.0329 43.812C87.0329 43.3547 86.8462 42.9907 86.4729 42.72C86.0995 42.44 85.4462 42.174 84.5129 41.922C83.7289 41.7073 83.1082 41.4787 82.6509 41.236C82.1935 40.984 81.8575 40.6947 81.6429 40.368C81.4375 40.032 81.3349 39.6307 81.3349 39.164C81.3349 38.3613 81.6382 37.7267 82.2449 37.26C82.8515 36.7933 83.6822 36.56 84.7369 36.56C85.6329 36.56 86.3842 36.77 86.9909 37.19C87.6069 37.61 88.0222 38.2027 88.2369 38.968C88.1435 39.0613 88.0175 39.1407 87.8589 39.206C87.7002 39.262 87.5462 39.29 87.3969 39.29C87.2569 39.29 87.1355 39.2573 87.0329 39.192C86.9395 39.1267 86.8602 39.0193 86.7949 38.87C86.5989 38.478 86.3189 38.1747 85.9549 37.96C85.6002 37.7453 85.1942 37.638 84.7369 37.638C84.0742 37.638 83.5749 37.7593 83.2389 38.002C82.9029 38.2447 82.7349 38.6087 82.7349 39.094C82.7349 39.3647 82.7955 39.5933 82.9169 39.78C83.0475 39.9573 83.2622 40.1253 83.5609 40.284C83.8689 40.4333 84.3075 40.592 84.8769 40.76C85.8569 41.0493 86.5989 41.32 87.1029 41.572C87.6069 41.824 87.9569 42.1087 88.1529 42.426C88.3582 42.734 88.4609 43.1307 88.4609 43.616C88.4609 44.2227 88.3022 44.7547 87.9849 45.212C87.6769 45.6693 87.2382 46.024 86.6689 46.276C86.0995 46.5187 85.4369 46.64 84.6809 46.64ZM96.5333 44.82C96.5333 45.4267 96.6033 45.94 96.7433 46.36C96.4819 46.5 96.1926 46.57 95.8753 46.57C95.6513 46.57 95.4879 46.4953 95.3853 46.346C95.2919 46.1967 95.2359 45.9213 95.2173 45.52C94.9466 45.8653 94.5873 46.1407 94.1393 46.346C93.7006 46.542 93.2199 46.64 92.6973 46.64C91.8946 46.64 91.2879 46.4253 90.8773 45.996C90.4759 45.5573 90.2753 44.9087 90.2753 44.05V38.8H91.6053V43.952C91.6053 44.568 91.7126 45.016 91.9273 45.296C92.1513 45.5667 92.5106 45.702 93.0053 45.702C93.4439 45.702 93.8546 45.59 94.2373 45.366C94.6199 45.1327 94.9419 44.806 95.2033 44.386V38.8H96.5333V44.82ZM105.132 44.666C105.132 45.1887 105.141 45.5573 105.16 45.772C105.188 45.9867 105.235 46.1827 105.3 46.36C104.964 46.5 104.614 46.57 104.25 46.57C104.073 46.57 103.951 46.4673 103.886 46.262C103.83 46.0473 103.802 45.6507 103.802 45.072V41.32C103.802 40.7227 103.695 40.298 103.48 40.046C103.275 39.7847 102.929 39.654 102.444 39.654C101.725 39.654 100.979 40.004 100.204 40.704V46.5H98.8739V41.39C98.8739 40.102 98.8179 39.304 98.7059 38.996C99.1446 38.828 99.4899 38.744 99.7419 38.744C100.05 38.744 100.204 39.0147 100.204 39.556V39.696C100.652 39.332 101.072 39.0707 101.464 38.912C101.865 38.744 102.29 38.66 102.738 38.66C103.541 38.66 104.138 38.8793 104.53 39.318C104.931 39.7473 105.132 40.4053 105.132 41.292V44.666ZM113.537 44.344C113.537 45.24 113.63 45.8933 113.817 46.304C113.481 46.4813 113.154 46.57 112.837 46.57C112.529 46.57 112.333 46.2527 112.249 45.618C111.969 45.9727 111.651 46.234 111.297 46.402C110.942 46.5607 110.517 46.64 110.023 46.64C109.024 46.64 108.24 46.29 107.671 45.59C107.101 44.89 106.817 43.9193 106.817 42.678C106.817 41.4273 107.129 40.4473 107.755 39.738C108.38 39.0193 109.243 38.66 110.345 38.66C110.662 38.66 110.993 38.716 111.339 38.828C111.693 38.9307 111.983 39.0613 112.207 39.22V35.426H113.537V44.344ZM110.191 45.674C110.62 45.674 110.998 45.5807 111.325 45.394C111.651 45.198 111.945 44.8993 112.207 44.498V40.298C112.011 40.0927 111.745 39.9247 111.409 39.794C111.082 39.6633 110.751 39.598 110.415 39.598C109.687 39.598 109.127 39.864 108.735 40.396C108.352 40.9187 108.161 41.6793 108.161 42.678C108.161 43.6673 108.333 44.414 108.679 44.918C109.024 45.422 109.528 45.674 110.191 45.674ZM121.47 44.26C121.47 44.8013 121.503 45.212 121.568 45.492C121.643 45.772 121.769 46.0147 121.946 46.22C121.815 46.3227 121.657 46.4113 121.47 46.486C121.283 46.5513 121.111 46.584 120.952 46.584C120.523 46.584 120.266 46.2013 120.182 45.436C119.902 45.8187 119.543 46.1173 119.104 46.332C118.675 46.5373 118.189 46.64 117.648 46.64C116.948 46.64 116.383 46.458 115.954 46.094C115.534 45.73 115.324 45.2447 115.324 44.638C115.324 42.9207 116.929 41.9827 120.14 41.824V41.278C120.14 40.7367 120.005 40.3353 119.734 40.074C119.463 39.8127 119.043 39.682 118.474 39.682C118.101 39.682 117.751 39.7567 117.424 39.906C117.097 40.0553 116.724 40.3167 116.304 40.69C116.239 40.7367 116.178 40.76 116.122 40.76C116.001 40.76 115.87 40.6993 115.73 40.578C115.59 40.4473 115.459 40.27 115.338 40.046C115.73 39.6073 116.215 39.2667 116.794 39.024C117.373 38.7813 117.975 38.66 118.6 38.66C119.496 38.66 120.196 38.8933 120.7 39.36C121.213 39.8173 121.47 40.4567 121.47 41.278V44.26ZM117.942 45.674C118.371 45.674 118.773 45.548 119.146 45.296C119.519 45.0347 119.851 44.666 120.14 44.19V42.692C117.825 42.7947 116.668 43.4153 116.668 44.554C116.668 44.918 116.775 45.198 116.99 45.394C117.214 45.5807 117.531 45.674 117.942 45.674ZM129.458 38.8L126.476 47.088C126.186 47.8813 125.836 48.4507 125.426 48.796C125.024 49.1413 124.497 49.314 123.844 49.314C123.452 49.314 123.139 49.244 122.906 49.104C122.672 48.9733 122.556 48.8007 122.556 48.586C122.556 48.3713 122.649 48.1753 122.836 47.998C122.938 48.0727 123.078 48.1287 123.256 48.166C123.433 48.2127 123.61 48.236 123.788 48.236C124.161 48.236 124.469 48.0867 124.712 47.788C124.964 47.4987 125.188 47.0273 125.384 46.374L122.64 38.8H124.026L126.056 44.666L128.072 38.8H129.458ZM138.218 46.64C136.828 46.64 135.754 46.206 134.998 45.338C134.252 44.4607 133.878 43.2147 133.878 41.6C133.878 39.9947 134.256 38.7533 135.012 37.876C135.768 36.9987 136.837 36.56 138.218 36.56C138.778 36.56 139.301 36.658 139.786 36.854C140.281 37.0407 140.696 37.3067 141.032 37.652C140.976 37.8667 140.883 38.0487 140.752 38.198C140.622 38.3473 140.486 38.422 140.346 38.422C140.216 38.422 140.094 38.38 139.982 38.296C139.702 38.0813 139.418 37.9273 139.128 37.834C138.848 37.7313 138.536 37.68 138.19 37.68C137.238 37.68 136.52 38.0113 136.034 38.674C135.549 39.3273 135.306 40.3027 135.306 41.6C135.306 42.8787 135.549 43.8493 136.034 44.512C136.529 45.1747 137.248 45.506 138.19 45.506C138.62 45.506 139.016 45.4407 139.38 45.31C139.744 45.17 140.09 44.9553 140.416 44.666C140.566 44.7033 140.692 44.7827 140.794 44.904C140.897 45.0253 140.948 45.1607 140.948 45.31C140.948 45.5433 140.822 45.7627 140.57 45.968C140.318 46.164 139.978 46.3273 139.548 46.458C139.128 46.5793 138.685 46.64 138.218 46.64ZM142.9 35.426H144.216V46.5H142.9V35.426ZM149.306 46.64C148.204 46.64 147.369 46.2993 146.8 45.618C146.23 44.9367 145.946 43.9427 145.946 42.636C145.946 41.3293 146.23 40.34 146.8 39.668C147.369 38.996 148.204 38.66 149.306 38.66C150.407 38.66 151.242 38.996 151.812 39.668C152.39 40.34 152.68 41.3293 152.68 42.636C152.68 43.9427 152.39 44.9367 151.812 45.618C151.242 46.2993 150.407 46.64 149.306 46.64ZM149.306 45.674C150.006 45.674 150.514 45.4313 150.832 44.946C151.158 44.4607 151.322 43.6907 151.322 42.636C151.322 41.5907 151.158 40.83 150.832 40.354C150.514 39.8687 150.006 39.626 149.306 39.626C148.606 39.626 148.092 39.8687 147.766 40.354C147.448 40.83 147.29 41.5907 147.29 42.636C147.29 43.6907 147.453 44.4607 147.78 44.946C148.106 45.4313 148.615 45.674 149.306 45.674ZM156.623 46.64C156.138 46.64 155.671 46.57 155.223 46.43C154.775 46.29 154.411 46.108 154.131 45.884C153.861 45.6507 153.725 45.3987 153.725 45.128C153.725 44.96 153.781 44.8153 153.893 44.694C154.015 44.5633 154.169 44.484 154.355 44.456C154.645 44.876 154.971 45.184 155.335 45.38C155.699 45.576 156.147 45.674 156.679 45.674C157.211 45.674 157.613 45.5573 157.883 45.324C158.154 45.0813 158.289 44.764 158.289 44.372C158.289 44.12 158.205 43.9147 158.037 43.756C157.879 43.588 157.673 43.4573 157.421 43.364C157.179 43.2613 156.847 43.154 156.427 43.042C155.877 42.8927 155.433 42.748 155.097 42.608C154.771 42.4587 154.486 42.244 154.243 41.964C154.01 41.6747 153.893 41.2967 153.893 40.83C153.893 40.3633 154.024 39.9667 154.285 39.64C154.547 39.3133 154.883 39.0707 155.293 38.912C155.704 38.744 156.133 38.66 156.581 38.66C157.207 38.66 157.762 38.786 158.247 39.038C158.742 39.2807 159.125 39.6213 159.395 40.06C159.283 40.2187 159.162 40.3447 159.031 40.438C158.901 40.5313 158.779 40.578 158.667 40.578C158.527 40.578 158.401 40.5127 158.289 40.382C157.841 39.8593 157.267 39.598 156.567 39.598C156.138 39.598 155.797 39.696 155.545 39.892C155.293 40.088 155.167 40.3867 155.167 40.788C155.167 41.04 155.247 41.2453 155.405 41.404C155.564 41.5533 155.765 41.6747 156.007 41.768C156.25 41.852 156.577 41.9453 156.987 42.048C157.547 42.1973 157.995 42.342 158.331 42.482C158.667 42.622 158.957 42.8413 159.199 43.14C159.442 43.4387 159.563 43.8353 159.563 44.33C159.563 45.0487 159.297 45.6133 158.765 46.024C158.243 46.4347 157.529 46.64 156.623 46.64ZM167.504 42.118C167.504 42.3047 167.49 42.5473 167.462 42.846H162.086C162.123 43.7327 162.329 44.4233 162.702 44.918C163.075 45.4033 163.589 45.646 164.242 45.646C164.681 45.646 165.045 45.5573 165.334 45.38C165.633 45.2027 165.922 44.8947 166.202 44.456C166.277 44.3533 166.379 44.302 166.51 44.302C166.725 44.302 167.005 44.428 167.35 44.68C167.107 45.296 166.715 45.7767 166.174 46.122C165.633 46.4673 164.989 46.64 164.242 46.64C163.523 46.64 162.898 46.4813 162.366 46.164C161.843 45.8373 161.442 45.3753 161.162 44.778C160.882 44.1713 160.742 43.4573 160.742 42.636C160.742 41.3947 161.055 40.424 161.68 39.724C162.315 39.0147 163.187 38.66 164.298 38.66C165.315 38.66 166.104 38.9633 166.664 39.57C167.224 40.1767 167.504 41.026 167.504 42.118ZM166.146 41.95C166.146 40.41 165.516 39.64 164.256 39.64C163.631 39.64 163.136 39.836 162.772 40.228C162.408 40.62 162.189 41.194 162.114 41.95H166.146ZM175.265 44.344C175.265 45.24 175.359 45.8933 175.545 46.304C175.209 46.4813 174.883 46.57 174.565 46.57C174.257 46.57 174.061 46.2527 173.977 45.618C173.697 45.9727 173.38 46.234 173.025 46.402C172.671 46.5607 172.246 46.64 171.751 46.64C170.753 46.64 169.969 46.29 169.399 45.59C168.83 44.89 168.545 43.9193 168.545 42.678C168.545 41.4273 168.858 40.4473 169.483 39.738C170.109 39.0193 170.972 38.66 172.073 38.66C172.391 38.66 172.722 38.716 173.067 38.828C173.422 38.9307 173.711 39.0613 173.935 39.22V35.426H175.265V44.344ZM171.919 45.674C172.349 45.674 172.727 45.5807 173.053 45.394C173.38 45.198 173.674 44.8993 173.935 44.498V40.298C173.739 40.0927 173.473 39.9247 173.137 39.794C172.811 39.6633 172.479 39.598 172.143 39.598C171.415 39.598 170.855 39.864 170.463 40.396C170.081 40.9187 169.889 41.6793 169.889 42.678C169.889 43.6673 170.062 44.414 170.407 44.918C170.753 45.422 171.257 45.674 171.919 45.674Z" fill="white"/>
<circle cx="31.6309" cy="34" r="31" fill="#111C55" stroke="#273270"/>
<path d="M32.1309 44.5C38.206 44.5 43.1309 39.5751 43.1309 33.5C43.1309 27.4249 38.206 22.5 32.1309 22.5C26.0557 22.5 21.1309 27.4249 21.1309 33.5C21.1309 39.5751 26.0557 44.5 32.1309 44.5Z" stroke="#F6B426"/>
<path d="M32.1309 24.5V33.7058L37.1309 37.5" stroke="#F6B426"/>
<path d="M379.243 26.45C379.243 26.87 379.192 27.15 379.089 27.29C378.996 27.43 378.804 27.5 378.515 27.5H373.237V17.7H379.187V18.75H374.637V21.942H378.515V23.006H374.637V26.45H379.243ZM389.261 19.66C389.952 19.66 390.507 19.8747 390.927 20.304C391.347 20.7333 391.557 21.3027 391.557 22.012V27.5H390.213V22.054C390.213 21.5407 390.11 21.172 389.905 20.948C389.709 20.7147 389.382 20.598 388.925 20.598C388.234 20.598 387.595 20.92 387.007 21.564C387.016 21.6293 387.021 21.7227 387.021 21.844V27.5H385.705V21.914C385.705 21.494 385.598 21.172 385.383 20.948C385.168 20.7147 384.865 20.598 384.473 20.598C384.128 20.598 383.792 20.6867 383.465 20.864C383.148 21.032 382.821 21.298 382.485 21.662V27.5H381.155V22.46C381.155 21.1067 381.099 20.29 380.987 20.01C381.146 19.9353 381.309 19.8747 381.477 19.828C381.654 19.772 381.808 19.744 381.939 19.744C382.126 19.744 382.261 19.8187 382.345 19.968C382.429 20.108 382.476 20.3367 382.485 20.654C382.83 20.3087 383.19 20.0567 383.563 19.898C383.936 19.7393 384.361 19.66 384.837 19.66C385.266 19.66 385.649 19.758 385.985 19.954C386.321 20.1407 386.578 20.402 386.755 20.738C387.1 20.3647 387.474 20.094 387.875 19.926C388.286 19.7487 388.748 19.66 389.261 19.66ZM399.538 25.26C399.538 25.8013 399.571 26.212 399.636 26.492C399.711 26.772 399.837 27.0147 400.014 27.22C399.884 27.3227 399.725 27.4113 399.538 27.486C399.352 27.5513 399.179 27.584 399.02 27.584C398.591 27.584 398.334 27.2013 398.25 26.436C397.97 26.8187 397.611 27.1173 397.172 27.332C396.743 27.5373 396.258 27.64 395.716 27.64C395.016 27.64 394.452 27.458 394.022 27.094C393.602 26.73 393.392 26.2447 393.392 25.638C393.392 23.9207 394.998 22.9827 398.208 22.824V22.278C398.208 21.7367 398.073 21.3353 397.802 21.074C397.532 20.8127 397.112 20.682 396.542 20.682C396.169 20.682 395.819 20.7567 395.492 20.906C395.166 21.0553 394.792 21.3167 394.372 21.69C394.307 21.7367 394.246 21.76 394.19 21.76C394.069 21.76 393.938 21.6993 393.798 21.578C393.658 21.4473 393.528 21.27 393.406 21.046C393.798 20.6073 394.284 20.2667 394.862 20.024C395.441 19.7813 396.043 19.66 396.668 19.66C397.564 19.66 398.264 19.8933 398.768 20.36C399.282 20.8173 399.538 21.4567 399.538 22.278V25.26ZM396.01 26.674C396.44 26.674 396.841 26.548 397.214 26.296C397.588 26.0347 397.919 25.666 398.208 25.19V23.692C395.894 23.7947 394.736 24.4153 394.736 25.554C394.736 25.918 394.844 26.198 395.058 26.394C395.282 26.5807 395.6 26.674 396.01 26.674ZM401.94 19.8H403.256V27.5H401.94V19.8ZM402.528 18.386C402.005 18.386 401.744 18.1247 401.744 17.602V17.448C401.744 16.9253 402.005 16.664 402.528 16.664H402.668C403.191 16.664 403.452 16.9253 403.452 17.448V17.602C403.452 18.1247 403.191 18.386 402.668 18.386H402.528ZM405.833 16.426H407.149V27.5H405.833V16.426ZM376.317 46.64C375.141 46.64 374.236 46.2947 373.601 45.604C372.966 44.904 372.649 43.9053 372.649 42.608C372.649 41.8053 372.794 41.1053 373.083 40.508C373.372 39.9107 373.788 39.4533 374.329 39.136C374.87 38.8187 375.51 38.66 376.247 38.66C377.124 38.66 377.843 38.884 378.403 39.332C378.972 39.7707 379.308 40.3633 379.411 41.11C379.262 41.194 379.103 41.264 378.935 41.32C378.767 41.3667 378.618 41.39 378.487 41.39C378.375 41.39 378.286 41.3573 378.221 41.292C378.165 41.2267 378.114 41.1053 378.067 40.928C377.946 40.4987 377.731 40.1767 377.423 39.962C377.115 39.738 376.723 39.626 376.247 39.626C375.556 39.626 375.006 39.8967 374.595 40.438C374.194 40.97 373.993 41.6933 373.993 42.608C373.993 43.5693 374.198 44.316 374.609 44.848C375.02 45.38 375.589 45.646 376.317 45.646C377.418 45.646 378.151 45.0767 378.515 43.938C378.767 43.938 378.958 44.008 379.089 44.148C379.229 44.2787 379.299 44.4653 379.299 44.708C379.299 45.044 379.159 45.3613 378.879 45.66C378.608 45.9587 378.244 46.1967 377.787 46.374C377.33 46.5513 376.84 46.64 376.317 46.64ZM383.843 46.64C382.742 46.64 381.906 46.2993 381.337 45.618C380.768 44.9367 380.483 43.9427 380.483 42.636C380.483 41.3293 380.768 40.34 381.337 39.668C381.906 38.996 382.742 38.66 383.843 38.66C384.944 38.66 385.78 38.996 386.349 39.668C386.928 40.34 387.217 41.3293 387.217 42.636C387.217 43.9427 386.928 44.9367 386.349 45.618C385.78 46.2993 384.944 46.64 383.843 46.64ZM383.843 45.674C384.543 45.674 385.052 45.4313 385.369 44.946C385.696 44.4607 385.859 43.6907 385.859 42.636C385.859 41.5907 385.696 40.83 385.369 40.354C385.052 39.8687 384.543 39.626 383.843 39.626C383.143 39.626 382.63 39.8687 382.303 40.354C381.986 40.83 381.827 41.5907 381.827 42.636C381.827 43.6907 381.99 44.4607 382.317 44.946C382.644 45.4313 383.152 45.674 383.843 45.674ZM395.108 44.666C395.108 45.1887 395.118 45.5573 395.136 45.772C395.164 45.9867 395.211 46.1827 395.276 46.36C394.94 46.5 394.59 46.57 394.226 46.57C394.049 46.57 393.928 46.4673 393.862 46.262C393.806 46.0473 393.778 45.6507 393.778 45.072V41.32C393.778 40.7227 393.671 40.298 393.456 40.046C393.251 39.7847 392.906 39.654 392.42 39.654C391.702 39.654 390.955 40.004 390.18 40.704V46.5H388.85V41.39C388.85 40.102 388.794 39.304 388.682 38.996C389.121 38.828 389.466 38.744 389.718 38.744C390.026 38.744 390.18 39.0147 390.18 39.556V39.696C390.628 39.332 391.048 39.0707 391.44 38.912C391.842 38.744 392.266 38.66 392.714 38.66C393.517 38.66 394.114 38.8793 394.506 39.318C394.908 39.7473 395.108 40.4053 395.108 41.292V44.666ZM401.203 45.422C401.278 45.4593 401.339 45.5247 401.385 45.618C401.432 45.702 401.455 45.8 401.455 45.912C401.455 46.0987 401.385 46.234 401.245 46.318C401.105 46.4207 400.909 46.5 400.657 46.556C400.415 46.612 400.149 46.64 399.859 46.64C399.234 46.64 398.735 46.472 398.361 46.136C397.988 45.7907 397.801 45.3333 397.801 44.764V39.738H396.443V38.8H397.801V36.7H399.131V38.8H400.965V39.738H399.131V44.582C399.131 44.9553 399.206 45.2307 399.355 45.408C399.505 45.576 399.733 45.66 400.041 45.66C400.415 45.66 400.802 45.5807 401.203 45.422ZM408.452 44.26C408.452 44.8013 408.485 45.212 408.55 45.492C408.625 45.772 408.751 46.0147 408.928 46.22C408.798 46.3227 408.639 46.4113 408.452 46.486C408.266 46.5513 408.093 46.584 407.934 46.584C407.505 46.584 407.248 46.2013 407.164 45.436C406.884 45.8187 406.525 46.1173 406.086 46.332C405.657 46.5373 405.172 46.64 404.63 46.64C403.93 46.64 403.366 46.458 402.936 46.094C402.516 45.73 402.306 45.2447 402.306 44.638C402.306 42.9207 403.912 41.9827 407.122 41.824V41.278C407.122 40.7367 406.987 40.3353 406.716 40.074C406.446 39.8127 406.026 39.682 405.456 39.682C405.083 39.682 404.733 39.7567 404.406 39.906C404.08 40.0553 403.706 40.3167 403.286 40.69C403.221 40.7367 403.16 40.76 403.104 40.76C402.983 40.76 402.852 40.6993 402.712 40.578C402.572 40.4473 402.442 40.27 402.32 40.046C402.712 39.6073 403.198 39.2667 403.776 39.024C404.355 38.7813 404.957 38.66 405.582 38.66C406.478 38.66 407.178 38.8933 407.682 39.36C408.196 39.8173 408.452 40.4567 408.452 41.278V44.26ZM404.924 45.674C405.354 45.674 405.755 45.548 406.128 45.296C406.502 45.0347 406.833 44.666 407.122 44.19V42.692C404.808 42.7947 403.65 43.4153 403.65 44.554C403.65 44.918 403.758 45.198 403.972 45.394C404.196 45.5807 404.514 45.674 404.924 45.674ZM413.682 46.64C412.506 46.64 411.601 46.2947 410.966 45.604C410.331 44.904 410.014 43.9053 410.014 42.608C410.014 41.8053 410.159 41.1053 410.448 40.508C410.737 39.9107 411.153 39.4533 411.694 39.136C412.235 38.8187 412.875 38.66 413.612 38.66C414.489 38.66 415.208 38.884 415.768 39.332C416.337 39.7707 416.673 40.3633 416.776 41.11C416.627 41.194 416.468 41.264 416.3 41.32C416.132 41.3667 415.983 41.39 415.852 41.39C415.74 41.39 415.651 41.3573 415.586 41.292C415.53 41.2267 415.479 41.1053 415.432 40.928C415.311 40.4987 415.096 40.1767 414.788 39.962C414.48 39.738 414.088 39.626 413.612 39.626C412.921 39.626 412.371 39.8967 411.96 40.438C411.559 40.97 411.358 41.6933 411.358 42.608C411.358 43.5693 411.563 44.316 411.974 44.848C412.385 45.38 412.954 45.646 413.682 45.646C414.783 45.646 415.516 45.0767 415.88 43.938C416.132 43.938 416.323 44.008 416.454 44.148C416.594 44.2787 416.664 44.4653 416.664 44.708C416.664 45.044 416.524 45.3613 416.244 45.66C415.973 45.9587 415.609 46.1967 415.152 46.374C414.695 46.5513 414.205 46.64 413.682 46.64ZM422.258 45.422C422.333 45.4593 422.393 45.5247 422.44 45.618C422.487 45.702 422.51 45.8 422.51 45.912C422.51 46.0987 422.44 46.234 422.3 46.318C422.16 46.4207 421.964 46.5 421.712 46.556C421.469 46.612 421.203 46.64 420.914 46.64C420.289 46.64 419.789 46.472 419.416 46.136C419.043 45.7907 418.856 45.3333 418.856 44.764V39.738H417.498V38.8H418.856V36.7H420.186V38.8H422.02V39.738H420.186V44.582C420.186 44.9553 420.261 45.2307 420.41 45.408C420.559 45.576 420.788 45.66 421.096 45.66C421.469 45.66 421.857 45.5807 422.258 45.422ZM430.529 42.664C430.52 42.7293 430.506 42.8227 430.487 42.944C430.468 43.056 430.459 43.1493 430.459 43.224C430.459 43.532 430.613 43.686 430.921 43.686C431.229 43.686 431.523 43.5647 431.803 43.322C432.083 43.07 432.312 42.7293 432.489 42.3C432.666 41.8613 432.755 41.3713 432.755 40.83C432.755 40.1113 432.587 39.4813 432.251 38.94C431.915 38.3893 431.444 37.9693 430.837 37.68C430.24 37.3813 429.549 37.232 428.765 37.232C427.916 37.232 427.164 37.4187 426.511 37.792C425.867 38.1653 425.363 38.6833 424.999 39.346C424.644 40.0087 424.467 40.76 424.467 41.6C424.467 42.5053 424.649 43.2893 425.013 43.952C425.377 44.6147 425.895 45.1233 426.567 45.478C427.239 45.8327 428.028 46.01 428.933 46.01C429.577 46.01 430.118 45.94 430.557 45.8C430.996 45.66 431.416 45.4547 431.817 45.184C432.041 45.3053 432.153 45.4687 432.153 45.674C432.153 45.8607 432.004 46.038 431.705 46.206C431.416 46.374 431.019 46.5093 430.515 46.612C430.02 46.724 429.493 46.78 428.933 46.78C427.86 46.78 426.922 46.5793 426.119 46.178C425.326 45.7673 424.71 45.1747 424.271 44.4C423.832 43.616 423.613 42.6733 423.613 41.572C423.613 40.6293 423.832 39.7707 424.271 38.996C424.719 38.212 425.335 37.596 426.119 37.148C426.903 36.6907 427.78 36.462 428.751 36.462C429.712 36.462 430.557 36.6487 431.285 37.022C432.022 37.3953 432.592 37.918 432.993 38.59C433.404 39.2527 433.609 40.0087 433.609 40.858C433.609 41.5767 433.478 42.216 433.217 42.776C432.956 43.3267 432.61 43.7513 432.181 44.05C431.761 44.3487 431.318 44.498 430.851 44.498C430.571 44.498 430.324 44.4233 430.109 44.274C429.904 44.1153 429.764 43.91 429.689 43.658C429.353 44.218 428.826 44.498 428.107 44.498C427.491 44.498 426.996 44.2973 426.623 43.896C426.259 43.4853 426.077 42.9113 426.077 42.174C426.077 41.5487 426.18 40.9933 426.385 40.508C426.6 40.0133 426.898 39.6307 427.281 39.36C427.664 39.0893 428.107 38.954 428.611 38.954C429.292 38.954 429.773 39.2153 430.053 39.738L430.151 39.178H431.089L430.529 42.664ZM428.219 43.686C428.695 43.686 429.068 43.448 429.339 42.972C429.619 42.496 429.759 41.936 429.759 41.292C429.759 40.7973 429.656 40.4193 429.451 40.158C429.255 39.8967 428.984 39.766 428.639 39.766C428.163 39.766 427.799 39.99 427.547 40.438C427.304 40.886 427.183 41.4553 427.183 42.146C427.183 42.6407 427.267 43.0233 427.435 43.294C427.612 43.5553 427.874 43.686 428.219 43.686ZM435.597 35.426H436.913V46.5H435.597V35.426ZM442.003 46.64C440.902 46.64 440.066 46.2993 439.497 45.618C438.928 44.9367 438.643 43.9427 438.643 42.636C438.643 41.3293 438.928 40.34 439.497 39.668C440.066 38.996 440.902 38.66 442.003 38.66C443.104 38.66 443.94 38.996 444.509 39.668C445.088 40.34 445.377 41.3293 445.377 42.636C445.377 43.9427 445.088 44.9367 444.509 45.618C443.94 46.2993 443.104 46.64 442.003 46.64ZM442.003 45.674C442.703 45.674 443.212 45.4313 443.529 44.946C443.856 44.4607 444.019 43.6907 444.019 42.636C444.019 41.5907 443.856 40.83 443.529 40.354C443.212 39.8687 442.703 39.626 442.003 39.626C441.303 39.626 440.79 39.8687 440.463 40.354C440.146 40.83 439.987 41.5907 439.987 42.636C439.987 43.6907 440.15 44.4607 440.477 44.946C440.804 45.4313 441.312 45.674 442.003 45.674ZM453.269 38.254C453.483 38.254 453.637 38.3193 453.731 38.45C453.833 38.5713 453.885 38.7767 453.885 39.066C453.885 39.206 453.88 39.3133 453.871 39.388C453.199 39.388 452.727 39.4767 452.457 39.654C452.811 40.0927 452.989 40.62 452.989 41.236C452.989 42.1227 452.718 42.7947 452.177 43.252C451.635 43.7 450.842 43.924 449.797 43.924C449.227 43.924 448.817 43.966 448.565 44.05C448.322 44.1247 448.201 44.2507 448.201 44.428C448.201 44.624 448.355 44.7687 448.663 44.862C448.98 44.946 449.498 44.988 450.217 44.988C451.29 44.988 452.116 45.17 452.695 45.534C453.283 45.898 453.577 46.4113 453.577 47.074C453.577 47.7927 453.259 48.3527 452.625 48.754C451.99 49.1553 451.094 49.356 449.937 49.356C448.826 49.356 447.972 49.1787 447.375 48.824C446.787 48.4787 446.493 47.9747 446.493 47.312C446.493 46.92 446.628 46.5887 446.899 46.318C447.179 46.038 447.575 45.842 448.089 45.73V45.688C447.781 45.6133 447.533 45.478 447.347 45.282C447.169 45.0767 447.081 44.8387 447.081 44.568C447.081 44.3347 447.174 44.1247 447.361 43.938C447.557 43.7513 447.818 43.616 448.145 43.532C447.725 43.308 447.393 43.014 447.151 42.65C446.917 42.2767 446.801 41.8613 446.801 41.404C446.801 40.508 447.076 39.8267 447.627 39.36C448.187 38.8933 448.999 38.66 450.063 38.66C450.679 38.66 451.225 38.786 451.701 39.038C451.925 38.7953 452.177 38.604 452.457 38.464C452.737 38.324 453.007 38.254 453.269 38.254ZM449.881 42.958C450.497 42.958 450.94 42.8273 451.211 42.566C451.481 42.3047 451.617 41.88 451.617 41.292C451.617 40.704 451.477 40.2747 451.197 40.004C450.926 39.7333 450.487 39.598 449.881 39.598C449.293 39.598 448.859 39.738 448.579 40.018C448.299 40.2887 448.159 40.7133 448.159 41.292C448.159 42.4027 448.733 42.958 449.881 42.958ZM449.993 45.996C448.574 45.996 447.865 46.3833 447.865 47.158C447.865 47.97 448.555 48.376 449.937 48.376C450.702 48.376 451.281 48.2733 451.673 48.068C452.065 47.8627 452.261 47.5593 452.261 47.158C452.261 46.7567 452.079 46.4627 451.715 46.276C451.36 46.0893 450.786 45.996 449.993 45.996ZM455.438 38.8H456.754V46.5H455.438V38.8ZM456.026 37.386C455.503 37.386 455.242 37.1247 455.242 36.602V36.448C455.242 35.9253 455.503 35.664 456.026 35.664H456.166C456.689 35.664 456.95 35.9253 456.95 36.448V36.602C456.95 37.1247 456.689 37.386 456.166 37.386H456.026ZM461.543 46.64C461.058 46.64 460.591 46.57 460.143 46.43C459.695 46.29 459.331 46.108 459.051 45.884C458.781 45.6507 458.645 45.3987 458.645 45.128C458.645 44.96 458.701 44.8153 458.813 44.694C458.935 44.5633 459.089 44.484 459.275 44.456C459.565 44.876 459.891 45.184 460.255 45.38C460.619 45.576 461.067 45.674 461.599 45.674C462.131 45.674 462.533 45.5573 462.803 45.324C463.074 45.0813 463.209 44.764 463.209 44.372C463.209 44.12 463.125 43.9147 462.957 43.756C462.799 43.588 462.593 43.4573 462.341 43.364C462.099 43.2613 461.767 43.154 461.347 43.042C460.797 42.8927 460.353 42.748 460.017 42.608C459.691 42.4587 459.406 42.244 459.163 41.964C458.93 41.6747 458.813 41.2967 458.813 40.83C458.813 40.3633 458.944 39.9667 459.205 39.64C459.467 39.3133 459.803 39.0707 460.213 38.912C460.624 38.744 461.053 38.66 461.501 38.66C462.127 38.66 462.682 38.786 463.167 39.038C463.662 39.2807 464.045 39.6213 464.315 40.06C464.203 40.2187 464.082 40.3447 463.951 40.438C463.821 40.5313 463.699 40.578 463.587 40.578C463.447 40.578 463.321 40.5127 463.209 40.382C462.761 39.8593 462.187 39.598 461.487 39.598C461.058 39.598 460.717 39.696 460.465 39.892C460.213 40.088 460.087 40.3867 460.087 40.788C460.087 41.04 460.167 41.2453 460.325 41.404C460.484 41.5533 460.685 41.6747 460.927 41.768C461.17 41.852 461.497 41.9453 461.907 42.048C462.467 42.1973 462.915 42.342 463.251 42.482C463.587 42.622 463.877 42.8413 464.119 43.14C464.362 43.4387 464.483 43.8353 464.483 44.33C464.483 45.0487 464.217 45.6133 463.685 46.024C463.163 46.4347 462.449 46.64 461.543 46.64ZM469.932 45.422C470.007 45.4593 470.067 45.5247 470.114 45.618C470.161 45.702 470.184 45.8 470.184 45.912C470.184 46.0987 470.114 46.234 469.974 46.318C469.834 46.4207 469.638 46.5 469.386 46.556C469.143 46.612 468.877 46.64 468.588 46.64C467.963 46.64 467.463 46.472 467.09 46.136C466.717 45.7907 466.53 45.3333 466.53 44.764V39.738H465.172V38.8H466.53V36.7H467.86V38.8H469.694V39.738H467.86V44.582C467.86 44.9553 467.935 45.2307 468.084 45.408C468.233 45.576 468.462 45.66 468.77 45.66C469.143 45.66 469.531 45.5807 469.932 45.422ZM471.735 38.8H473.051V46.5H471.735V38.8ZM472.323 37.386C471.8 37.386 471.539 37.1247 471.539 36.602V36.448C471.539 35.9253 471.8 35.664 472.323 35.664H472.463C472.986 35.664 473.247 35.9253 473.247 36.448V36.602C473.247 37.1247 472.986 37.386 472.463 37.386H472.323ZM478.596 46.64C477.42 46.64 476.515 46.2947 475.88 45.604C475.245 44.904 474.928 43.9053 474.928 42.608C474.928 41.8053 475.073 41.1053 475.362 40.508C475.651 39.9107 476.067 39.4533 476.608 39.136C477.149 38.8187 477.789 38.66 478.526 38.66C479.403 38.66 480.122 38.884 480.682 39.332C481.251 39.7707 481.587 40.3633 481.69 41.11C481.541 41.194 481.382 41.264 481.214 41.32C481.046 41.3667 480.897 41.39 480.766 41.39C480.654 41.39 480.565 41.3573 480.5 41.292C480.444 41.2267 480.393 41.1053 480.346 40.928C480.225 40.4987 480.01 40.1767 479.702 39.962C479.394 39.738 479.002 39.626 478.526 39.626C477.835 39.626 477.285 39.8967 476.874 40.438C476.473 40.97 476.272 41.6933 476.272 42.608C476.272 43.5693 476.477 44.316 476.888 44.848C477.299 45.38 477.868 45.646 478.596 45.646C479.697 45.646 480.43 45.0767 480.794 43.938C481.046 43.938 481.237 44.008 481.368 44.148C481.508 44.2787 481.578 44.4653 481.578 44.708C481.578 45.044 481.438 45.3613 481.158 45.66C480.887 45.9587 480.523 46.1967 480.066 46.374C479.609 46.5513 479.119 46.64 478.596 46.64ZM485.674 46.64C485.189 46.64 484.722 46.57 484.274 46.43C483.826 46.29 483.462 46.108 483.182 45.884C482.911 45.6507 482.776 45.3987 482.776 45.128C482.776 44.96 482.832 44.8153 482.944 44.694C483.065 44.5633 483.219 44.484 483.406 44.456C483.695 44.876 484.022 45.184 484.386 45.38C484.75 45.576 485.198 45.674 485.73 45.674C486.262 45.674 486.663 45.5573 486.934 45.324C487.205 45.0813 487.34 44.764 487.34 44.372C487.34 44.12 487.256 43.9147 487.088 43.756C486.929 43.588 486.724 43.4573 486.472 43.364C486.229 43.2613 485.898 43.154 485.478 43.042C484.927 42.8927 484.484 42.748 484.148 42.608C483.821 42.4587 483.537 42.244 483.294 41.964C483.061 41.6747 482.944 41.2967 482.944 40.83C482.944 40.3633 483.075 39.9667 483.336 39.64C483.597 39.3133 483.933 39.0707 484.344 38.912C484.755 38.744 485.184 38.66 485.632 38.66C486.257 38.66 486.813 38.786 487.298 39.038C487.793 39.2807 488.175 39.6213 488.446 40.06C488.334 40.2187 488.213 40.3447 488.082 40.438C487.951 40.5313 487.83 40.578 487.718 40.578C487.578 40.578 487.452 40.5127 487.34 40.382C486.892 39.8593 486.318 39.598 485.618 39.598C485.189 39.598 484.848 39.696 484.596 39.892C484.344 40.088 484.218 40.3867 484.218 40.788C484.218 41.04 484.297 41.2453 484.456 41.404C484.615 41.5533 484.815 41.6747 485.058 41.768C485.301 41.852 485.627 41.9453 486.038 42.048C486.598 42.1973 487.046 42.342 487.382 42.482C487.718 42.622 488.007 42.8413 488.25 43.14C488.493 43.4387 488.614 43.8353 488.614 44.33C488.614 45.0487 488.348 45.6133 487.816 46.024C487.293 46.4347 486.579 46.64 485.674 46.64ZM491.221 46.528C490.698 46.528 490.437 46.2667 490.437 45.744V45.59C490.437 45.0673 490.698 44.806 491.221 44.806H491.361C491.883 44.806 492.145 45.0673 492.145 45.59V45.744C492.145 46.2667 491.883 46.528 491.361 46.528H491.221ZM497.641 46.64C496.465 46.64 495.56 46.2947 494.925 45.604C494.29 44.904 493.973 43.9053 493.973 42.608C493.973 41.8053 494.118 41.1053 494.407 40.508C494.696 39.9107 495.112 39.4533 495.653 39.136C496.194 38.8187 496.834 38.66 497.571 38.66C498.448 38.66 499.167 38.884 499.727 39.332C500.296 39.7707 500.632 40.3633 500.735 41.11C500.586 41.194 500.427 41.264 500.259 41.32C500.091 41.3667 499.942 41.39 499.811 41.39C499.699 41.39 499.61 41.3573 499.545 41.292C499.489 41.2267 499.438 41.1053 499.391 40.928C499.27 40.4987 499.055 40.1767 498.747 39.962C498.439 39.738 498.047 39.626 497.571 39.626C496.88 39.626 496.33 39.8967 495.919 40.438C495.518 40.97 495.317 41.6933 495.317 42.608C495.317 43.5693 495.522 44.316 495.933 44.848C496.344 45.38 496.913 45.646 497.641 45.646C498.742 45.646 499.475 45.0767 499.839 43.938C500.091 43.938 500.282 44.008 500.413 44.148C500.553 44.2787 500.623 44.4653 500.623 44.708C500.623 45.044 500.483 45.3613 500.203 45.66C499.932 45.9587 499.568 46.1967 499.111 46.374C498.654 46.5513 498.164 46.64 497.641 46.64ZM505.167 46.64C504.066 46.64 503.23 46.2993 502.661 45.618C502.092 44.9367 501.807 43.9427 501.807 42.636C501.807 41.3293 502.092 40.34 502.661 39.668C503.23 38.996 504.066 38.66 505.167 38.66C506.268 38.66 507.104 38.996 507.673 39.668C508.252 40.34 508.541 41.3293 508.541 42.636C508.541 43.9427 508.252 44.9367 507.673 45.618C507.104 46.2993 506.268 46.64 505.167 46.64ZM505.167 45.674C505.867 45.674 506.376 45.4313 506.693 44.946C507.02 44.4607 507.183 43.6907 507.183 42.636C507.183 41.5907 507.02 40.83 506.693 40.354C506.376 39.8687 505.867 39.626 505.167 39.626C504.467 39.626 503.954 39.8687 503.627 40.354C503.31 40.83 503.151 41.5907 503.151 42.636C503.151 43.6907 503.314 44.4607 503.641 44.946C503.968 45.4313 504.476 45.674 505.167 45.674ZM518.351 38.66C519.041 38.66 519.597 38.8747 520.017 39.304C520.437 39.7333 520.647 40.3027 520.647 41.012V46.5H519.303V41.054C519.303 40.5407 519.2 40.172 518.995 39.948C518.799 39.7147 518.472 39.598 518.015 39.598C517.324 39.598 516.685 39.92 516.097 40.564C516.106 40.6293 516.111 40.7227 516.111 40.844V46.5H514.795V40.914C514.795 40.494 514.687 40.172 514.473 39.948C514.258 39.7147 513.955 39.598 513.563 39.598C513.217 39.598 512.881 39.6867 512.555 39.864C512.237 40.032 511.911 40.298 511.575 40.662V46.5H510.245V41.46C510.245 40.1067 510.189 39.29 510.077 39.01C510.235 38.9353 510.399 38.8747 510.567 38.828C510.744 38.772 510.898 38.744 511.029 38.744C511.215 38.744 511.351 38.8187 511.435 38.968C511.519 39.108 511.565 39.3367 511.575 39.654C511.92 39.3087 512.279 39.0567 512.653 38.898C513.026 38.7393 513.451 38.66 513.927 38.66C514.356 38.66 514.739 38.758 515.075 38.954C515.411 39.1407 515.667 39.402 515.845 39.738C516.19 39.3647 516.563 39.094 516.965 38.926C517.375 38.7487 517.837 38.66 518.351 38.66Z" fill="white"/>
<circle cx="326.631" cy="34" r="31" fill="#111C55" stroke="#273270"/>
<path d="M336.127 25.5H318.135C317.58 25.5 317.131 25.8755 317.131 26.3387V39.6613C317.131 40.1245 317.58 40.5 318.135 40.5H336.127C336.681 40.5 337.131 40.1245 337.131 39.6613V26.3387C337.131 25.8755 336.681 25.5 336.127 25.5Z" stroke="#F6B426"/>
<path d="M317.131 25.5L327.556 32.5L337.131 25.7294" stroke="#F6B426"/>
<path d="M643.199 25.14C641.808 25.14 640.735 24.706 639.979 23.838C639.232 22.9607 638.859 21.7147 638.859 20.1C638.859 18.4947 639.237 17.2533 639.993 16.376C640.749 15.4987 641.818 15.06 643.199 15.06C643.759 15.06 644.282 15.158 644.767 15.354C645.262 15.5407 645.677 15.8067 646.013 16.152C645.957 16.3667 645.864 16.5487 645.733 16.698C645.602 16.8473 645.467 16.922 645.327 16.922C645.196 16.922 645.075 16.88 644.963 16.796C644.683 16.5813 644.398 16.4273 644.109 16.334C643.829 16.2313 643.516 16.18 643.171 16.18C642.219 16.18 641.5 16.5113 641.015 17.174C640.53 17.8273 640.287 18.8027 640.287 20.1C640.287 21.3787 640.53 22.3493 641.015 23.012C641.51 23.6747 642.228 24.006 643.171 24.006C643.6 24.006 643.997 23.9407 644.361 23.81C644.725 23.67 645.07 23.4553 645.397 23.166C645.546 23.2033 645.672 23.2827 645.775 23.404C645.878 23.5253 645.929 23.6607 645.929 23.81C645.929 24.0433 645.803 24.2627 645.551 24.468C645.299 24.664 644.958 24.8273 644.529 24.958C644.109 25.0793 643.666 25.14 643.199 25.14ZM653.466 22.76C653.466 23.3013 653.499 23.712 653.564 23.992C653.639 24.272 653.765 24.5147 653.942 24.72C653.811 24.8227 653.653 24.9113 653.466 24.986C653.279 25.0513 653.107 25.084 652.948 25.084C652.519 25.084 652.262 24.7013 652.178 23.936C651.898 24.3187 651.539 24.6173 651.1 24.832C650.671 25.0373 650.185 25.14 649.644 25.14C648.944 25.14 648.379 24.958 647.95 24.594C647.53 24.23 647.32 23.7447 647.32 23.138C647.32 21.4207 648.925 20.4827 652.136 20.324V19.778C652.136 19.2367 652.001 18.8353 651.73 18.574C651.459 18.3127 651.039 18.182 650.47 18.182C650.097 18.182 649.747 18.2567 649.42 18.406C649.093 18.5553 648.72 18.8167 648.3 19.19C648.235 19.2367 648.174 19.26 648.118 19.26C647.997 19.26 647.866 19.1993 647.726 19.078C647.586 18.9473 647.455 18.77 647.334 18.546C647.726 18.1073 648.211 17.7667 648.79 17.524C649.369 17.2813 649.971 17.16 650.596 17.16C651.492 17.16 652.192 17.3933 652.696 17.86C653.209 18.3173 653.466 18.9567 653.466 19.778V22.76ZM649.938 24.174C650.367 24.174 650.769 24.048 651.142 23.796C651.515 23.5347 651.847 23.166 652.136 22.69V21.192C649.821 21.2947 648.664 21.9153 648.664 23.054C648.664 23.418 648.771 23.698 648.986 23.894C649.21 24.0807 649.527 24.174 649.938 24.174ZM655.728 13.926H657.044V25H655.728V13.926ZM659.474 13.926H660.79V25H659.474V13.926ZM670.595 25.14C669.317 25.14 668.36 24.8367 667.725 24.23C667.091 23.6233 666.773 22.7087 666.773 21.486V15.2H668.159V21.682C668.159 22.4847 668.36 23.082 668.761 23.474C669.163 23.8567 669.774 24.048 670.595 24.048C671.426 24.048 672.037 23.8567 672.429 23.474C672.821 23.0913 673.017 22.494 673.017 21.682V15.2H674.403V21.486C674.403 22.7367 674.091 23.6607 673.465 24.258C672.849 24.846 671.893 25.14 670.595 25.14ZM678.967 25.14C678.482 25.14 678.015 25.07 677.567 24.93C677.119 24.79 676.755 24.608 676.475 24.384C676.204 24.1507 676.069 23.8987 676.069 23.628C676.069 23.46 676.125 23.3153 676.237 23.194C676.358 23.0633 676.512 22.984 676.699 22.956C676.988 23.376 677.315 23.684 677.679 23.88C678.043 24.076 678.491 24.174 679.023 24.174C679.555 24.174 679.956 24.0573 680.227 23.824C680.498 23.5813 680.633 23.264 680.633 22.872C680.633 22.62 680.549 22.4147 680.381 22.256C680.222 22.088 680.017 21.9573 679.765 21.864C679.522 21.7613 679.191 21.654 678.771 21.542C678.22 21.3927 677.777 21.248 677.441 21.108C677.114 20.9587 676.83 20.744 676.587 20.464C676.354 20.1747 676.237 19.7967 676.237 19.33C676.237 18.8633 676.368 18.4667 676.629 18.14C676.89 17.8133 677.226 17.5707 677.637 17.412C678.048 17.244 678.477 17.16 678.925 17.16C679.55 17.16 680.106 17.286 680.591 17.538C681.086 17.7807 681.468 18.1213 681.739 18.56C681.627 18.7187 681.506 18.8447 681.375 18.938C681.244 19.0313 681.123 19.078 681.011 19.078C680.871 19.078 680.745 19.0127 680.633 18.882C680.185 18.3593 679.611 18.098 678.911 18.098C678.482 18.098 678.141 18.196 677.889 18.392C677.637 18.588 677.511 18.8867 677.511 19.288C677.511 19.54 677.59 19.7453 677.749 19.904C677.908 20.0533 678.108 20.1747 678.351 20.268C678.594 20.352 678.92 20.4453 679.331 20.548C679.891 20.6973 680.339 20.842 680.675 20.982C681.011 21.122 681.3 21.3413 681.543 21.64C681.786 21.9387 681.907 22.3353 681.907 22.83C681.907 23.5487 681.641 24.1133 681.109 24.524C680.586 24.9347 679.872 25.14 678.967 25.14ZM641.407 45.386C640.679 44.4247 640.128 43.356 639.755 42.18C639.391 41.004 639.209 39.8373 639.209 38.68C639.209 37.532 639.391 36.3747 639.755 35.208C640.128 34.032 640.679 32.9633 641.407 32.002H642.583C641.902 33.0193 641.393 34.0927 641.057 35.222C640.73 36.3513 640.567 37.504 640.567 38.68C640.567 41.1533 641.239 43.3887 642.583 45.386H641.407ZM647.926 44.168C646.694 44.168 645.761 43.7433 645.126 42.894C644.501 42.0353 644.188 40.8267 644.188 39.268C644.188 37.6067 644.501 36.3233 645.126 35.418C645.761 34.5127 646.694 34.06 647.926 34.06C649.158 34.06 650.087 34.5127 650.712 35.418C651.347 36.3233 651.664 37.6067 651.664 39.268C651.664 40.8267 651.347 42.0353 650.712 42.894C650.087 43.7433 649.158 44.168 647.926 44.168ZM647.926 43.118C648.747 43.118 649.354 42.782 649.746 42.11C650.138 41.438 650.334 40.4907 650.334 39.268C650.334 37.9333 650.138 36.9067 649.746 36.188C649.354 35.4693 648.747 35.11 647.926 35.11C646.321 35.11 645.518 36.496 645.518 39.268C645.518 41.8347 646.321 43.118 647.926 43.118ZM656.608 44.168C655.376 44.168 654.442 43.7433 653.808 42.894C653.182 42.0353 652.87 40.8267 652.87 39.268C652.87 37.6067 653.182 36.3233 653.808 35.418C654.442 34.5127 655.376 34.06 656.608 34.06C657.84 34.06 658.768 34.5127 659.394 35.418C660.028 36.3233 660.346 37.6067 660.346 39.268C660.346 40.8267 660.028 42.0353 659.394 42.894C658.768 43.7433 657.84 44.168 656.608 44.168ZM656.608 43.118C657.429 43.118 658.036 42.782 658.428 42.11C658.82 41.438 659.016 40.4907 659.016 39.268C659.016 37.9333 658.82 36.9067 658.428 36.188C658.036 35.4693 657.429 35.11 656.608 35.11C655.002 35.11 654.2 36.496 654.2 39.268C654.2 41.8347 655.002 43.118 656.608 43.118ZM661.957 45.386C663.301 43.3887 663.973 41.1533 663.973 38.68C663.973 37.504 663.805 36.3513 663.469 35.222C663.143 34.0927 662.639 33.0193 661.957 32.002H663.133C663.861 32.9633 664.407 34.032 664.771 35.208C665.145 36.3747 665.331 37.532 665.331 38.68C665.331 39.8373 665.145 41.004 664.771 42.18C664.407 43.356 663.861 44.4247 663.133 45.386H661.957ZM675.544 43.048V44H670.924V43.048H672.632V35.768C672.398 35.9453 672.146 36.0993 671.876 36.23C671.605 36.3513 671.358 36.412 671.134 36.412C670.928 36.412 670.765 36.356 670.644 36.244C670.522 36.132 670.462 35.978 670.462 35.782C670.462 35.642 670.485 35.5253 670.532 35.432C670.924 35.3947 671.358 35.2687 671.834 35.054C672.31 34.8393 672.73 34.5547 673.094 34.2H673.906V43.048H675.544ZM681.969 43.048V44H677.349V43.048H679.057V35.768C678.824 35.9453 678.572 36.0993 678.301 36.23C678.031 36.3513 677.783 36.412 677.559 36.412C677.354 36.412 677.191 36.356 677.069 36.244C676.948 36.132 676.887 35.978 676.887 35.782C676.887 35.642 676.911 35.5253 676.957 35.432C677.349 35.3947 677.783 35.2687 678.259 35.054C678.735 34.8393 679.155 34.5547 679.519 34.2H680.331V43.048H681.969ZM689.711 37.168C689.711 38.1013 689.357 39.03 688.647 39.954C687.938 40.8687 686.888 41.8813 685.497 42.992H689.599V44H683.593V43.314C684.807 42.3247 685.754 41.4847 686.435 40.794C687.126 40.1033 687.63 39.464 687.947 38.876C688.274 38.2787 688.437 37.672 688.437 37.056C688.437 36.468 688.283 36.0107 687.975 35.684C687.667 35.3573 687.229 35.194 686.659 35.194C685.455 35.194 684.783 35.922 684.643 37.378C684.261 37.378 683.99 37.3173 683.831 37.196C683.682 37.0747 683.607 36.874 683.607 36.594C683.607 36.174 683.729 35.782 683.971 35.418C684.223 35.0447 684.578 34.7507 685.035 34.536C685.502 34.312 686.043 34.2 686.659 34.2C687.602 34.2 688.344 34.452 688.885 34.956C689.436 35.4507 689.711 36.188 689.711 37.168ZM699.216 38.946C699.701 39.0673 700.107 39.3053 700.434 39.66C700.761 40.0053 700.924 40.5187 700.924 41.2C700.924 42.1053 700.611 42.8193 699.986 43.342C699.37 43.8647 698.539 44.126 697.494 44.126C696.859 44.126 696.299 44.0513 695.814 43.902C695.338 43.7527 694.969 43.5567 694.708 43.314C694.447 43.062 694.316 42.7913 694.316 42.502C694.316 42.278 694.391 42.1007 694.54 41.97C694.689 41.83 694.862 41.76 695.058 41.76C695.329 42.1987 695.646 42.5347 696.01 42.768C696.383 43.0013 696.892 43.118 697.536 43.118C698.208 43.118 698.726 42.95 699.09 42.614C699.454 42.2687 699.636 41.802 699.636 41.214C699.636 40.626 699.473 40.1873 699.146 39.898C698.819 39.5993 698.381 39.45 697.83 39.45L697.382 39.464C697.177 39.4827 697.013 39.492 696.892 39.492C696.733 39.492 696.593 39.408 696.472 39.24C696.36 39.0627 696.304 38.8947 696.304 38.736C696.304 38.5867 696.355 38.512 696.458 38.512H697.606C698.175 38.512 698.609 38.3627 698.908 38.064C699.216 37.7653 699.37 37.3127 699.37 36.706C699.37 36.23 699.216 35.8613 698.908 35.6C698.6 35.3293 698.147 35.194 697.55 35.194C697.027 35.194 696.603 35.3247 696.276 35.586C695.959 35.838 695.679 36.2113 695.436 36.706C695.165 36.706 694.951 36.6453 694.792 36.524C694.643 36.3933 694.568 36.216 694.568 35.992C694.568 35.74 694.694 35.474 694.946 35.194C695.198 34.914 695.553 34.6807 696.01 34.494C696.477 34.298 696.999 34.2 697.578 34.2C698.521 34.2 699.267 34.4193 699.818 34.858C700.378 35.2873 700.658 35.9033 700.658 36.706C700.658 37.2847 700.523 37.7607 700.252 38.134C699.981 38.5073 699.636 38.778 699.216 38.946ZM705.877 37.714C706.465 37.714 706.993 37.84 707.459 38.092C707.935 38.344 708.304 38.7173 708.565 39.212C708.836 39.6973 708.971 40.2853 708.971 40.976C708.971 41.592 708.836 42.138 708.565 42.614C708.304 43.0807 707.926 43.4447 707.431 43.706C706.946 43.9673 706.381 44.098 705.737 44.098C705.009 44.098 704.384 43.9253 703.861 43.58C703.348 43.2253 702.956 42.7493 702.685 42.152C702.424 41.5453 702.293 40.864 702.293 40.108C702.293 39.0253 702.494 38.0267 702.895 37.112C703.306 36.1973 703.857 35.474 704.547 34.942C705.247 34.4007 706.003 34.13 706.815 34.13C707.133 34.13 707.357 34.214 707.487 34.382C707.627 34.5407 707.697 34.7787 707.697 35.096C706.689 35.096 705.845 35.3993 705.163 36.006C704.482 36.6033 704.015 37.4153 703.763 38.442C704.043 38.2273 704.37 38.0547 704.743 37.924C705.117 37.784 705.495 37.714 705.877 37.714ZM705.765 43.09C706.381 43.09 706.853 42.894 707.179 42.502C707.515 42.1007 707.683 41.578 707.683 40.934C707.683 40.178 707.511 39.6227 707.165 39.268C706.829 38.904 706.353 38.722 705.737 38.722C705.327 38.722 704.935 38.8107 704.561 38.988C704.197 39.156 703.875 39.3847 703.595 39.674C703.586 39.7673 703.581 39.912 703.581 40.108C703.581 41.004 703.759 41.7273 704.113 42.278C704.468 42.8193 705.019 43.09 705.765 43.09ZM713.817 37.56C714.433 37.56 714.979 37.6907 715.455 37.952C715.931 38.204 716.3 38.5727 716.561 39.058C716.832 39.534 716.967 40.0987 716.967 40.752C716.967 41.788 716.669 42.6093 716.071 43.216C715.474 43.8227 714.671 44.126 713.663 44.126C713.057 44.126 712.529 44.042 712.081 43.874C711.633 43.6967 711.288 43.4727 711.045 43.202C710.812 42.9313 710.695 42.656 710.695 42.376C710.695 41.928 710.933 41.6713 711.409 41.606C711.801 42.6233 712.539 43.132 713.621 43.132C714.293 43.132 714.802 42.922 715.147 42.502C715.502 42.0727 715.679 41.508 715.679 40.808C715.679 40.052 715.502 39.492 715.147 39.128C714.802 38.764 714.307 38.582 713.663 38.582C713.234 38.582 712.865 38.666 712.557 38.834C712.249 39.002 711.969 39.2633 711.717 39.618L710.807 39.464L711.143 34.2H716.295V35.194H712.249L712.053 38.078C712.529 37.7327 713.117 37.56 713.817 37.56ZM725.696 41.76H721.44V41.116C722.336 39.8747 723.008 38.7267 723.456 37.672C723.904 36.6173 724.175 35.46 724.268 34.2C724.352 34.1813 724.473 34.172 724.632 34.172C725.239 34.172 725.542 34.494 725.542 35.138C725.542 35.9313 725.262 36.86 724.702 37.924C724.151 38.988 723.531 39.9307 722.84 40.752H725.696V38.05H726.97V40.752H728.202V41.76H726.97V44H725.696V41.76ZM733.907 38.96C734.597 39.2493 735.078 39.604 735.349 40.024C735.619 40.444 735.755 40.948 735.755 41.536C735.755 42.376 735.456 43.02 734.859 43.468C734.271 43.9067 733.459 44.126 732.423 44.126C731.396 44.126 730.584 43.9067 729.987 43.468C729.399 43.02 729.105 42.376 729.105 41.536C729.105 40.948 729.245 40.444 729.525 40.024C729.805 39.5947 730.285 39.24 730.967 38.96C730.425 38.68 730.019 38.3627 729.749 38.008C729.487 37.644 729.357 37.2007 729.357 36.678C729.357 35.9033 729.637 35.2873 730.197 34.83C730.757 34.3633 731.499 34.13 732.423 34.13C733.356 34.13 734.098 34.3633 734.649 34.83C735.199 35.2873 735.475 35.9033 735.475 36.678C735.475 37.21 735.344 37.658 735.083 38.022C734.831 38.386 734.439 38.6987 733.907 38.96ZM732.423 35.11C731.881 35.11 731.447 35.25 731.121 35.53C730.794 35.8007 730.631 36.1693 730.631 36.636C730.631 37.056 730.785 37.4247 731.093 37.742C731.41 38.05 731.853 38.302 732.423 38.498C733.095 38.2833 733.557 38.0313 733.809 37.742C734.07 37.4527 734.201 37.084 734.201 36.636C734.201 36.1693 734.037 35.8007 733.711 35.53C733.393 35.25 732.964 35.11 732.423 35.11ZM732.423 43.132C733.048 43.132 733.543 42.992 733.907 42.712C734.28 42.4227 734.467 42.0307 734.467 41.536C734.467 41.2187 734.406 40.9527 734.285 40.738C734.173 40.514 733.972 40.3087 733.683 40.122C733.393 39.9353 732.973 39.7393 732.423 39.534C731.704 39.8047 731.186 40.0893 730.869 40.388C730.551 40.6867 730.393 41.0693 730.393 41.536C730.393 42.0307 730.575 42.4227 730.939 42.712C731.303 42.992 731.797 43.132 732.423 43.132ZM740.255 34.172C741.422 34.172 742.28 34.5313 742.831 35.25C743.382 35.9687 743.657 36.9253 743.657 38.12C743.657 39.212 743.447 40.2153 743.027 41.13C742.616 42.0353 742.052 42.7587 741.333 43.3C740.614 43.832 739.821 44.098 738.953 44.098C738.636 44.098 738.407 44.0187 738.267 43.86C738.127 43.692 738.057 43.4493 738.057 43.132C739.121 43.132 740.003 42.8427 740.703 42.264C741.403 41.6853 741.888 40.8967 742.159 39.898C741.888 40.0847 741.576 40.2387 741.221 40.36C740.876 40.4813 740.516 40.542 740.143 40.542C739.2 40.542 738.435 40.2667 737.847 39.716C737.268 39.1653 736.979 38.3907 736.979 37.392C736.979 36.7667 737.124 36.2113 737.413 35.726C737.702 35.2313 738.094 34.8487 738.589 34.578C739.084 34.3073 739.639 34.172 740.255 34.172ZM740.283 39.534C741.086 39.534 741.776 39.2447 742.355 38.666C742.364 38.5447 742.369 38.3627 742.369 38.12C742.369 37.196 742.21 36.4773 741.893 35.964C741.576 35.4507 741.02 35.194 740.227 35.194C739.602 35.194 739.116 35.404 738.771 35.824C738.435 36.2347 738.267 36.776 738.267 37.448C738.267 38.148 738.44 38.6707 738.785 39.016C739.14 39.3613 739.639 39.534 740.283 39.534Z" fill="white"/>
<circle cx="592.631" cy="31.5" r="31" fill="#111C55" stroke="#273270"/>
<path d="M585.105 22.1408C584.97 22.1449 584.838 22.1743 584.716 22.2272C584.593 22.28 584.484 22.3554 584.393 22.4487C584.302 22.542 584.233 22.6514 584.188 22.7704C584.143 22.8894 584.124 23.0156 584.133 23.1416C584.267 25.3015 584.901 30.5716 587.937 33.8583C591.572 37.8181 596.306 39.1824 601.163 38.9808C601.423 38.9662 601.668 38.8596 601.847 38.6826C602.027 38.5055 602.128 38.2712 602.131 38.0268V34.5674C602.128 34.2446 602.009 33.9322 601.794 33.6802C601.578 33.4282 601.279 33.2513 600.944 33.1779L598.511 32.6739C598.21 32.6138 597.897 32.6397 597.612 32.7481C597.327 32.8566 597.084 33.0427 596.913 33.2823L596.375 34.0454C596.325 34.1153 596.252 34.1668 596.166 34.1911C596.08 34.2154 595.989 34.211 595.906 34.1786C594.669 33.6783 589.739 31.5184 589.197 27.8753C589.187 27.805 589.198 27.7333 589.231 27.6692C589.264 27.6051 589.316 27.5516 589.382 27.5154L590.358 26.9574C590.625 26.802 590.836 26.5732 590.96 26.3022C591.084 26.0311 591.117 25.7308 591.053 25.4419L590.519 23.1236C590.441 22.7988 590.245 22.5093 589.965 22.3045C589.685 22.0998 589.337 21.9923 588.982 22.0004L585.105 22.1408Z" stroke="#F6B426"/>
</svg>
